<?xml version="1.0" standalone="no"?>
<!DOCTYPE svg PUBLIC "-//W3C//DTD SVG 20010904//EN"
 "http://www.w3.org/TR/2001/REC-SVG-20010904/DTD/svg10.dtd">
<svg version="1.0" xmlns="http://www.w3.org/2000/svg"
 width="598.000000pt" height="192.000000pt" viewBox="0 0 598.000000 192.000000"
 preserveAspectRatio="xMidYMid meet">

<g transform="translate(0.000000,192.000000) scale(0.100000,-0.100000)"
fill="#000000" stroke="none">
<path d="M2545 1893 c-11 -2 -56 -11 -100 -19 -157 -29 -359 -103 -505 -182
-73 -40 -221 -134 -217 -138 2 -2 47 20 101 48 116 59 221 99 360 136 90 23
120 26 271 26 195 1 241 -7 363 -66 109 -52 187 -127 233 -226 l34 -72 600 1
c330 0 596 2 590 4 -5 2 -64 9 -130 14 -66 6 -167 16 -225 21 -230 23 -319 31
-412 39 -53 5 -101 11 -106 15 -6 3 -18 28 -28 55 -55 154 -251 293 -473 335
-77 15 -303 21 -356 9z"/>
<path d="M2286 1690 c-148 -24 -335 -89 -476 -167 -89 -50 -180 -112 -180
-123 0 -6 46 -10 109 -10 102 0 112 2 162 30 268 149 474 209 679 196 106 -6
177 -24 265 -68 l60 -30 -35 37 c-39 41 -148 98 -230 121 -67 18 -273 26 -354
14z"/>
<path d="M1484 1562 c-16 -9 -214 -245 -214 -254 0 -4 28 -8 63 -10 l62 -3 3
-257 2 -258 -67 2 c-38 0 -52 3 -33 5 19 2 45 6 58 8 l22 5 0 224 c0 124 -3
231 -6 240 -7 19 -122 22 -268 6 -98 -10 -125 -23 -83 -39 15 -6 27 -12 27
-15 0 -2 -15 -39 -33 -82 l-34 -78 -177 -32 c-236 -43 -222 -38 -230 -75 -8
-44 -8 -121 2 -117 4 2 30 15 58 30 100 52 225 57 322 11 44 -21 105 -82 122
-123 l12 -30 334 0 c189 0 335 4 338 9 4 5 3 16 0 25 -5 13 -26 16 -135 16
l-129 0 -2 400 c-2 298 -6 397 -14 392z m-239 -432 l0 -75 -38 -3 c-24 -2 -42
-10 -50 -23 -9 -14 -23 -19 -60 -19 -61 0 -66 12 -37 98 36 108 31 103 113
100 l72 -3 0 -75z"/>
<path d="M1671 1282 c-50 -25 -75 -81 -75 -167 0 -82 25 -135 77 -161 39 -21
143 -15 181 9 26 17 27 21 24 90 l-3 72 -65 -1 c-59 0 -65 -2 -68 -22 -3 -22
4 -26 46 -22 19 1 22 -3 22 -34 0 -26 -6 -38 -21 -47 -30 -15 -86 -2 -103 24
-33 52 -27 177 10 204 39 28 114 5 114 -35 0 -7 15 -12 35 -12 42 0 47 22 14
64 -44 56 -121 71 -188 38z"/>
<path d="M1953 1294 c-10 -4 -13 -50 -13 -180 l0 -174 115 0 115 0 0 30 0 30
-80 0 -79 0 -3 148 c-3 139 -4 147 -23 149 -11 1 -26 -1 -32 -3z"/>
<path d="M2271 1282 c-22 -10 -44 -34 -59 -62 -20 -39 -23 -55 -19 -117 2 -44
10 -82 21 -98 26 -39 75 -65 124 -65 95 0 147 62 147 175 0 53 -5 79 -21 105
-43 74 -122 99 -193 62z m118 -61 c38 -38 39 -156 2 -202 -24 -29 -75 -30
-104 -1 -32 32 -36 144 -8 190 17 26 27 32 56 32 21 0 43 -8 54 -19z"/>
<path d="M2980 1293 c-10 -2 -39 -67 -78 -171 -34 -93 -62 -171 -62 -175 0 -4
15 -7 33 -7 30 0 36 4 50 40 l15 40 62 0 62 0 15 -40 c14 -36 20 -40 50 -40
18 0 33 3 33 7 0 5 -120 332 -124 339 -3 6 -44 11 -56 7z m44 -152 c22 -68 21
-71 -24 -71 -24 0 -40 5 -40 12 0 23 34 117 40 113 4 -3 15 -27 24 -54z"/>
<path d="M3873 1294 c-13 -6 -9 -12 56 -122 l31 -53 -45 -74 c-64 -105 -64
-105 -19 -105 37 0 41 3 72 60 18 33 35 60 37 60 2 0 19 -27 37 -60 31 -57 35
-60 71 -60 20 0 37 3 37 6 0 3 -22 44 -49 90 l-50 84 49 83 c41 70 46 83 32
88 -9 4 -24 5 -32 3 -8 -1 -18 -3 -22 -3 -3 -1 -20 -26 -37 -56 -17 -30 -33
-55 -35 -55 -3 0 -18 24 -35 54 -36 62 -58 76 -98 60z"/>
<path d="M4217 1292 c-15 -3 -17 -24 -17 -178 l0 -174 35 0 35 0 0 65 0 65 59
0 c75 0 121 28 134 82 11 47 -15 107 -56 126 -26 12 -152 21 -190 14z m156
-64 c9 -7 19 -25 22 -40 10 -40 -23 -68 -80 -68 l-45 0 0 60 0 60 43 0 c24 0
51 -6 60 -12z"/>
<path d="M4583 1292 l-63 -3 0 -174 0 -175 35 0 35 0 0 65 0 65 33 0 c29 0 35
-6 63 -63 29 -57 35 -62 68 -65 20 -2 36 -1 36 3 0 3 -15 36 -34 73 l-34 67
29 33 c54 60 29 152 -44 167 -52 11 -59 11 -124 7z m111 -68 c9 -8 16 -26 16
-39 0 -36 -26 -55 -76 -55 l-44 0 0 55 0 55 44 0 c27 0 51 -6 60 -16z"/>
<path d="M4923 1293 l-83 -4 0 -174 0 -175 120 0 120 0 0 30 0 30 -85 0 -85 0
0 50 0 50 70 0 c68 0 70 1 70 25 0 24 -2 25 -70 25 l-70 0 0 45 0 45 85 0 c83
0 85 1 85 24 0 18 -7 25 -31 30 -17 3 -34 5 -38 4 -3 -1 -43 -4 -88 -5z"/>
<path d="M5173 1280 c-87 -53 -67 -136 44 -180 73 -29 97 -51 88 -79 -13 -43
-100 -38 -120 7 -13 29 -75 32 -75 4 0 -50 64 -92 140 -92 63 0 103 20 120 59
26 63 -13 117 -108 149 -30 10 -60 26 -66 35 -18 28 5 52 52 55 37 3 43 0 54
-22 9 -20 18 -26 45 -26 37 0 40 8 17 51 -29 56 -129 77 -191 39z"/>
<path d="M5495 1286 c-46 -20 -65 -44 -65 -81 0 -46 32 -80 105 -109 33 -13
66 -33 73 -44 12 -18 11 -23 -7 -41 -12 -12 -31 -21 -44 -21 -28 0 -67 26 -67
46 0 9 -11 14 -35 14 -40 0 -46 -19 -19 -58 23 -33 67 -52 123 -52 83 0 124
31 124 95 0 46 -23 72 -87 100 -85 36 -91 40 -94 59 -10 48 75 65 104 21 11
-17 25 -25 45 -25 55 0 30 64 -38 99 -29 15 -81 13 -118 -3z"/>
<path d="M2549 1288 c-1 -5 -1 -321 0 -335 1 -18 152 -17 194 0 44 19 59 40
61 86 0 28 -6 47 -22 63 -19 22 -20 26 -7 39 9 9 18 31 21 50 5 29 1 41 -19
65 -24 28 -29 29 -126 32 -56 2 -101 2 -102 0z m165 -64 c34 -34 7 -76 -50
-78 -44 -1 -44 -1 -44 54 0 40 0 40 39 40 23 0 46 -7 55 -16z m6 -144 c41 -41
14 -80 -56 -80 l-49 0 2 47 c1 27 2 49 2 51 1 1 19 2 41 2 27 0 47 -7 60 -20z"/>
<path d="M3200 1115 l0 -175 115 0 115 0 0 30 0 30 -80 0 -80 0 0 145 0 145
-35 0 -35 0 0 -175z"/>
<path d="M3600 1115 l0 -175 115 0 115 0 0 30 0 30 -80 0 -80 0 0 50 0 50 70
0 c68 0 70 1 70 25 0 24 -2 25 -70 25 l-70 0 0 45 0 45 80 0 c79 0 80 0 80 25
l0 25 -115 0 -115 0 0 -175z"/>
<path d="M830 865 c13 -16 7 -20 -45 -30 -84 -15 -180 -90 -154 -121 10 -12 3
-14 -40 -14 l-52 0 3 -72 3 -73 54 -3 c54 -3 54 -3 48 24 -14 74 46 178 120
210 48 21 129 18 179 -7 71 -34 129 -146 109 -209 -6 -20 -6 -20 352 -18 l358
3 0 70 0 70 -335 0 -335 0 -26 40 c-47 74 -127 125 -212 138 -32 5 -37 4 -27
-8z"/>
<path d="M2495 845 c-41 -40 -27 -77 43 -107 53 -24 65 -37 50 -55 -16 -20
-56 -16 -68 7 -14 26 -50 27 -50 2 0 -47 84 -76 138 -48 26 14 32 23 32 50 0
39 -20 60 -76 79 -27 10 -39 20 -39 33 0 24 46 31 65 10 15 -19 50 -21 50 -3
-1 54 -101 77 -145 32z"/>
<path d="M2682 753 c2 -97 6 -118 18 -118 11 0 16 13 18 48 l3 47 50 0 49 0 0
-44 c0 -45 14 -66 31 -49 5 5 9 49 10 98 2 133 2 135 -20 135 -17 0 -20 -8
-23 -47 l-3 -48 -45 0 -45 0 -3 48 c-3 39 -6 47 -23 47 -19 0 -19 -6 -17 -117z"/>
<path d="M2912 753 c3 -110 4 -118 23 -118 19 0 20 8 23 118 l3 117 -26 0 -26
0 3 -117z"/>
<path d="M3000 755 l0 -115 25 0 c23 0 25 4 25 40 l0 40 43 0 c66 0 102 48 81
105 -10 26 -59 45 -119 45 l-55 0 0 -115z m123 54 c17 -28 1 -49 -38 -49 -33
0 -35 2 -35 36 0 34 1 35 31 32 18 -2 37 -10 42 -19z"/>
<path d="M3210 756 c0 -70 4 -117 10 -117 33 -5 35 -2 40 71 l5 74 24 -69 c37
-107 55 -107 93 3 l23 67 5 -75 c5 -73 7 -76 40 -71 6 0 10 47 10 116 l0 115
-32 0 c-32 0 -34 -2 -61 -81 -16 -44 -31 -79 -32 -77 -2 2 -17 37 -32 78 -27
70 -31 75 -61 78 l-32 3 0 -115z"/>
<path d="M3502 753 l3 -118 70 0 c58 0 70 3 73 18 3 14 -4 17 -47 17 l-51 0 0
35 c0 35 0 35 45 35 33 0 45 4 45 15 0 11 -12 15 -45 15 -43 0 -45 1 -45 30 0
29 1 30 50 30 43 0 50 3 50 20 0 18 -7 20 -75 20 l-76 0 3 -117z"/>
<path d="M3682 753 c3 -110 4 -118 23 -118 18 0 20 8 23 75 l3 75 49 -77 c35
-55 54 -76 67 -74 16 3 18 16 21 120 3 117 3 117 -20 114 -21 -3 -23 -9 -28
-73 l-5 -70 -43 73 c-35 59 -48 72 -68 72 l-25 0 3 -117z"/>
<path d="M3897 863 c-18 -17 -5 -33 28 -33 l35 0 0 -94 c0 -94 6 -110 38 -99
8 3 12 32 12 99 l0 94 35 0 c28 0 35 4 35 20 0 18 -7 20 -88 20 -49 0 -92 -3
-95 -7z"/>
<path d="M4140 857 c-28 -14 -38 -54 -21 -86 6 -11 28 -25 48 -32 21 -6 44
-16 51 -22 17 -13 15 -36 -3 -43 -23 -9 -65 5 -65 21 0 9 -10 15 -25 15 -31 0
-33 -22 -5 -50 42 -42 123 -36 149 12 13 23 13 29 -3 53 -10 15 -34 34 -54 42
-49 20 -62 32 -55 49 7 19 62 18 69 -1 7 -17 54 -21 54 -5 0 6 -11 22 -25 35
-27 28 -74 33 -115 12z"/>
<path d="M770 758 c-99 -51 -128 -168 -65 -262 14 -20 25 -39 25 -41 0 -3 -17
-5 -37 -5 -21 0 -90 -13 -153 -29 l-115 -29 423 -1 423 -1 55 -44 c180 -147
469 -175 778 -76 54 17 96 33 94 35 -2 2 -32 -4 -68 -13 -95 -23 -325 -23
-405 2 -94 28 -154 64 -218 127 l-59 59 -113 0 c-98 0 -114 -2 -109 -15 5 -13
-13 -15 -125 -15 -72 0 -131 3 -131 6 0 3 11 19 25 35 69 83 33 224 -69 270
-55 25 -102 24 -156 -3z m141 -61 c60 -41 75 -103 39 -162 -39 -64 -128 -72
-183 -17 -57 58 -39 155 36 187 45 20 69 18 108 -8z"/>
<path d="M840 690 c0 -5 4 -10 9 -10 6 0 13 5 16 10 3 6 -1 10 -9 10 -9 0 -16
-4 -16 -10z"/>
<path d="M780 665 c-8 -9 -8 -15 -2 -15 12 0 26 19 19 26 -2 2 -10 -2 -17 -11z"/>
<path d="M902 669 c2 -7 10 -15 17 -17 8 -3 12 1 9 9 -2 7 -10 15 -17 17 -8 3
-12 -1 -9 -9z"/>
<path d="M826 605 c-10 -8 -23 -12 -27 -9 -14 8 -10 -10 7 -34 32 -46 120 -11
94 37 -12 24 -46 27 -74 6z"/>
<path d="M750 595 c0 -8 5 -15 10 -15 6 0 10 7 10 15 0 8 -4 15 -10 15 -5 0
-10 -7 -10 -15z"/>
<path d="M930 601 c0 -6 5 -13 10 -16 6 -3 10 1 10 9 0 9 -4 16 -10 16 -5 0
-10 -4 -10 -9z"/>
<path d="M772 539 c2 -7 10 -15 17 -17 8 -3 12 1 9 9 -2 7 -10 15 -17 17 -8 3
-12 -1 -9 -9z"/>
<path d="M905 539 c-4 -6 -5 -13 -2 -16 7 -7 27 6 27 18 0 12 -17 12 -25 -2z"/>
<path d="M835 510 c-3 -5 3 -10 15 -10 12 0 18 5 15 10 -3 6 -10 10 -15 10 -5
0 -12 -4 -15 -10z"/>
<path d="M2598 450 c-98 -81 -324 -196 -488 -248 -204 -65 -457 -80 -620 -37
-63 17 -169 67 -219 102 -47 34 -9 -14 50 -63 276 -229 794 -215 1274 35 61
32 135 74 165 93 l55 36 542 48 c298 26 539 52 537 56 -3 4 -287 8 -632 8
l-627 0 -37 -30z"/>
</g>
</svg>
